<?xml version="1.0" encoding="utf-8"?>
<!-- Generator: Adobe Illustrator 16.0.3, SVG Export Plug-In . SVG Version: 6.00 Build 0)  -->
<!DOCTYPE svg PUBLIC "-//W3C//DTD SVG 1.1//EN" "http://www.w3.org/Graphics/SVG/1.1/DTD/svg11.dtd">
<svg version="1.1" id="Capa_1" xmlns="http://www.w3.org/2000/svg" xmlns:xlink="http://www.w3.org/1999/xlink" x="0px" y="0px"
	 width="250px" height="250px" viewBox="0 0 250 250" enable-background="new 0 0 250 250" xml:space="preserve">
<g>
	<path fill="#EEC9A7" d="M94.366,88.155c0,0-0.467,15.507-0.504,21.54c-0.041,7.021,2.188,25.615,2.188,25.615h-8.106l-0.729-24.733
		l0.974-21.351L94.366,88.155z"/>
	<path fill="#F4DFBE" d="M149.175,90.932c0,0,1.844,7.672-3.959,15.526c1.019,1.12,2.18,10.706,5.841,11.782
		c5.506,1.616,13.897-8.56,13.897-8.56l-2.231-17.858L149.175,90.932z"/>
	<path opacity="0.5" fill="#EABB91" d="M150.442,106.139c-1.044-0.578-1.407-4.078-1.832-6.461
		c-0.621,2.113-1.663,4.437-3.395,6.781c1.019,1.12,2.18,10.706,5.841,11.782c5.506,1.616,13.897-8.56,13.897-8.56l-1.329-10.626
		C159.328,102.308,152.183,107.1,150.442,106.139z"/>
	<path fill="#F2D0AC" d="M136.883,175.496c-0.442,4.573-1.637,18.444-2.309,30.585c-1.682,5.583-2.149,7.389-2.088,9.964
		c0.058,2.391,1.035,4.377,11.757,5.054c5.746,1.097,9.069,1.704,15.949,1.278c1.315-0.08,4.255-2.081,1.941-4.585
		c-1.707-1.845-8.923-4.529-11.086-5.33c-2.408-0.894-6.933-1.287-7.272-5.621c-0.234-3.001,7.273-18.934,10.577-32.539
		L136.883,175.496z"/>
	<path fill="#2D363D" d="M94.591,132.673c0,0,32.184-2.394,53.101,2.618c5.629,1.348,9.74,5.364,9.896,16.24
		c0.164,11.21-1.374,17.097-4.917,32.188c-6.211,3.063-17.071-2.946-17.071-2.946s-0.149-17.62,0.673-22.919
		c-11.692-1.224-59.744-1.127-60.462-16.052L94.591,132.673z"/>
	<radialGradient id="SVGID_1_" cx="61.8408" cy="201.8545" r="81.8358" gradientUnits="userSpaceOnUse">
		<stop  offset="0.1268" style="stop-color:#1FA7C9"/>
		<stop  offset="0.3565" style="stop-color:#1EA0C6"/>
		<stop  offset="0.7333" style="stop-color:#1D8FBD"/>
		<stop  offset="1" style="stop-color:#1D80B5"/>
	</radialGradient>
	<path fill="url(#SVGID_1_)" d="M140.828,190.312c0,31.144-11.863,47.736-56.64,47.327c-19.104-0.175-50.033-11.259-52.234-41.785
		c-2.241-31.062,16.482-52.54,47.579-50.852C125.473,147.494,140.828,159.177,140.828,190.312z"/>
	<path fill="#F4DFBE" d="M46.403,92.282c0,0-3.224-4.049-3.232-6.259c-0.038-10.737,12.196-17.337,15.297-22.911
		c1.583-2.844,3.269-12.601,3.269-12.601l12.974,4.251c0,0-2.353,7.798-1.009,9.462c2.375,0.301,9.473,2.358,9.473,2.358
		l1.48,14.212l-21.504,4.78L46.403,92.282z"/>
	<path fill="#F34D44" d="M56.469,66.143c0,0,11.851,10.209,16.239,7.491c2.403-1.488,1.681-9.638,1.681-9.638
		s6.84,0.678,12.339,3.413c4.952,2.462,2.976,8.43,7.851,21.32c0,0-1.692-0.42-3.398,0.311c1.706,3.106,8.958,10.534,1.339,18.252
		c0,0-6.219,20.336,3.699,26.08c1.59,0.922,5.975,6.563-4.795,5.573c-18.026-1.66-35.771,9.224-36.809,17.685
		c0,0-6.571-3.285-3.811-18.589c2.761-15.303,1.585-28.843-7.255-44.317C39.46,86.568,44.473,71.791,56.469,66.143z"/>
	<path fill="#F4DFBE" d="M110.171,198.871c2.411,15.729,4.307,27.413,4.15,29.969c-0.158,2.558-2.071,8.207-2.011,10.78
		c0.057,2.394,2.188,3.553,12.91,4.231c4.811,0.304,6.746,1.907,14.431,1.915c3.381,0.004,10.332-7.168,10.598-9.04
		c0.209-1.479,0.212-1.344-5.724-2.771c-4.568-1.096-13.93-1.42-17.052-4.443c-0.628-2.981-0.877-4.337-0.486-8.254
		c1.543-15.509,1.977-25.549,1.977-25.549L110.171,198.871z"/>
	<path opacity="0.5" fill="#EABB91" d="M128.16,208.057c0.773-9.34,0.805-12.347,0.805-12.347l-18.793,3.161
		c0,0,0.322,2.07,0.939,6.255C115.935,207.203,122.922,209.783,128.16,208.057z"/>
	<path fill="#33414C" d="M88.989,138.976c0,0,21.359,8.164,28.794,9.745c5.706,1.209,13.604,1.254,13.793,18.812
		c0.189,17.557,0.253,24.667-1.514,35.993c-6.608,3.96-14.741,2.899-19.547,0.946c-2.454-13.194-2.285-33.19-2.285-33.19
		s-43.358-4.049-55.904-16.597C52.83,141.344,65.338,133.683,88.989,138.976z"/>
	<path fill="#74C1D8" d="M114.525,165.597c-2.153-3.103-21.359-7.854-30.44-10.759c-10.33-3.307-20.659-7.604-26.63-11.982
		c-0.537,0.475-1.342,1.281-1.851,2.054c12.59,8.681,55.245,19.186,56.841,21.702c1.596,2.516-1.064,23.264,2.656,39.176
		c1.028,0.138,0.638,0.273,2.084,0.294C113.023,189.503,116.675,168.701,114.525,165.597z"/>
	<path fill="#F2D0AC" d="M126.721,108.8l-15.062,2.809l-26.388-9.145l-2.287,4.571c0,0,18.979,16.516,26.939,18.042
		c5.46,1.05,21.746-4.653,21.746-4.653L126.721,108.8z"/>
	<path fill="#52BDD1" d="M139.688,109.638c0.006-0.599,0.01-1.184,0.01-1.738C139.119,108.479,139.3,109.059,139.688,109.638z"/>
	<g>
		<path fill="#F4DFBE" d="M189.941,197.256c0,0,3.833-11.462,7.135-12.394c7.503,1.529,27.793,15.662,24.334,21.044
			c-0.64,0.997-1.711,3.644-4.284,2.013c-2.571-1.625-5.419-1.478-7.568-1.698c-1.862-0.188-9.343-0.46-9.343-0.46L189.941,197.256z
			"/>
		<path opacity="0.5" fill="#EABB91" d="M200.215,205.761c0,0,4,0.146,6.879,0.298c-4.696-3.838-14.579-8.989-17.437-9.407
			L200.215,205.761z"/>
		<path fill="#2CA9AE" d="M169.577,175.47c0,0,0.416,22.876-1.04,24.748l21.628-3.951c0,0,11.992,6.305,10.05,9.494
			c0,0-23.495,10.081-36.496,12.835c-11.911,2.523-8.421-44.997-8.421-44.997L169.577,175.47z"/>
		<g>
			<path fill="#F4DFBE" d="M163.089,213.844c0,0,4.638,8.388,5.189,15.606c-1.311,2.628-3.583,2.334-9.564,3.872
				c-6.524,1.678-13.258,6.041-21.098,4.339c-1.313-1.875-1.781-7.604,6.816-11.971c8.6-4.369,7.719-9.117,7.719-9.117
				L163.089,213.844z"/>
			<path opacity="0.5" fill="#EABB91" d="M137.273,232.761c-0.961,2.351-0.344,3.919,0.343,4.9
				c4.12,2.016,12.287-1.312,14.965-2.274C151.347,233.345,137.273,232.761,137.273,232.761z"/>
		</g>
		<path opacity="0.5" fill="#EABB91" d="M126.721,108.8l-2.431,0.452c-0.141,4.398,0.485,8.472,2.107,12.87
			c3.344-0.996,5.272-1.697,5.272-1.697L126.721,108.8z"/>
		<path fill="#52BDD1" d="M124.054,107.644c0,0,1.433,12.388,6.055,14.708l7.386-2.251c0,0-1.652,7.851,3.85,14.55
			c6.556,7.986,10.211,20.51,10.211,20.51s16.356-1.532,20.935,2.112c4.574,3.643,18.634,7.076,18.634,7.076
			s-2.854-11.894-8.959-29.265c-2.375-6.768-4.478-21.584-6.972-27.614c-2.497-6.03-7.089-9.516-11.863-10.784
			c-3.502,5.289-9.883,11.728-12.682,11.007c-1.766-0.453-1.902-6.858-1.315-11.564c-2.602,0-8.347,2.189-12.889,5.281
			C129.299,106.271,124.054,107.644,124.054,107.644z"/>
		<path fill="#36B1C0" d="M142.954,106.147c-1.077-0.288-1.198,5.919-1.824,6.002c-0.627,0.083-1.103-1.481-1.432-1.439
			c-0.33,0.041,0.104,5.598-2.203,9.391c-0.067,0.446-0.153,1.075-0.181,1.457C139.832,117.4,144.918,112.345,142.954,106.147z"/>
		<path fill="#36B1C0" d="M157.207,178.116c3.506,1.207,9.115,4.132,22.009,0.456c12.891-3.674,11.549-14.804,11.409-16.193
			c-0.137-1.385-30.569-15.418-51.003-5.901c-10.268,4.782-6.592,15.225,3.937,46.356c1.363,4.031,6.64,16.934,6.64,16.934
			s13.564-0.861,15.229-3.98C165.427,215.787,160.896,183.196,157.207,178.116z"/>
	</g>
	<g>
		<radialGradient id="SVGID_2_" cx="108.3789" cy="78.4404" r="8.8624" gradientUnits="userSpaceOnUse">
			<stop  offset="0" style="stop-color:#36B1C0"/>
			<stop  offset="1" style="stop-color:#29A7AC"/>
		</radialGradient>
		<path fill="url(#SVGID_2_)" d="M116.886,80.086c-0.95,4.908-5.53,8.15-10.228,7.241c-4.697-0.909-7.736-5.627-6.787-10.534
			c0.95-4.907,5.53-8.151,10.228-7.241C114.796,70.46,117.836,75.18,116.886,80.086z"/>
		<g>
			<path fill="#F4DFBE" d="M106.106,74.773c-3.627,1.769-5.39,5.621-3.942,8.593c1.459,2.971,5.596,4.527,9.231,2.754
				c3.632-1.772,4.482-5.965,3.032-8.941C112.97,74.203,109.739,72.992,106.106,74.773z"/>
			<path fill="#F4DFBE" d="M104.083,71.911c-0.648,0.534-0.747,1.494-0.219,2.123l2.274,2.75c0.526,0.632,1.478,0.712,2.129,0.166
				l0,0c0.648-0.54,0.748-1.492,0.224-2.128l-2.274-2.74C105.69,71.444,104.733,71.371,104.083,71.911L104.083,71.911z"/>
			<path fill="#F4DFBE" d="M107.077,70.48c-0.71,0.589-0.677,1.8,0.076,2.706l3.25,3.921c0.751,0.904,1.931,1.159,2.641,0.572l0,0
				c0.709-0.591,0.675-1.804-0.078-2.714l-3.248-3.914C108.965,70.144,107.788,69.891,107.077,70.48L107.077,70.48z"/>
			<path fill="#F4DFBE" d="M102.2,74.457c-0.612,0.521-0.813,1.431-0.377,1.957l1.932,2.207c0.438,0.524,1.296,0.526,1.911,0.016
				l0,0c0.625-0.519,0.771-1.366,0.333-1.889l-1.879-2.269C103.682,73.949,102.829,73.949,102.2,74.457L102.2,74.457z"/>
			<path fill="#F4DFBE" d="M100.442,76.73c-0.584,0.489-0.483,1.583,0.225,2.437l3.479,3.979c0.708,0.859,1.351,0.882,1.939,0.392
				l0,0c0.586-0.489,0.482-1.58-0.23-2.437l-3.191-3.563C101.952,76.68,101.026,76.244,100.442,76.73L100.442,76.73z"/>
		</g>
		<path fill="#F4DFBE" d="M69.139,94.441c6.024,3.213,14.698,13.865,14.698,13.865s8.754-10.328,10.213-12.159
			c2.132-2.678,8.936-10.675,8.936-10.675l6.585,0.993l-11.054,21.901c0,0-7.384,12.454-11.466,14.702
			c-0.8,0.44-2.866,0.857-3.628,0.357c-2.216-1.457-7.291-4.466-9.693-6.28c-5.399-4.075-9.92-7.759-17.327-14.681
			C56.464,98.858,65.727,94.232,69.139,94.441z"/>
		<path fill="#EABB91" d="M69.523,94.662c-0.245-0.148-0.146-0.093-0.384-0.22c-3.413-0.209-12.675,4.417-12.737,8.023
			c0.74,0.692,1.444,1.343,2.13,1.973C59.087,99.436,64.647,95.458,69.523,94.662z"/>
		<radialGradient id="SVGID_3_" cx="100.4619" cy="81.1997" r="9.7969" gradientUnits="userSpaceOnUse">
			<stop  offset="0" style="stop-color:#36B1C0"/>
			<stop  offset="1" style="stop-color:#29A7AC"/>
		</radialGradient>
		<path fill="url(#SVGID_3_)" d="M109.867,83.02c-1.05,5.425-6.112,9.008-11.306,8.004c-5.193-1.006-8.553-6.22-7.503-11.646
			c1.05-5.423,6.113-9.009,11.307-8.003C107.555,72.379,110.917,77.596,109.867,83.02z"/>
	</g>
	<path fill="#EABB91" d="M83.667,107.248c0,0-1.842,1.76-3.988,1.827c-2.146,0.067-12.12-2.833-13.237-3.902
		c-1.008-0.965,1.818-1.861,2.728-1.861c0.828,0,5.579,1.384,5.579,1.384s0.097-0.992-7.188-2.256
		c-1.138-0.197-6.917-0.572-6.324-2.225c0.521-0.672,1.999-0.677,5.304-0.849c2.039-0.106,5.15-0.433,9.709-0.186
		c2.893,1.095,5.176,2.2,8.435,3.967L83.667,107.248z"/>
	<path fill="#F2D0AC" d="M83.59,107.562c0,0-1.766,0.675-3.912,0.743c-2.146,0.067-10.59-2.713-12.039-3.255
		c-1.281-0.479-1.341-0.969,1.075-1.737c1.274-0.406,6.033,0.613,6.033,0.613s0.097-0.992-7.188-2.256
		c-1.138-0.197-5.87-0.546-6.324-1.454c-0.455-0.91,1.999-1.448,5.304-1.62c2.039-0.106,5.15-0.434,9.709-0.187
		c2.893,1.095,5.763,2.288,9.021,4.056L83.59,107.562z"/>
	<g>
		<path fill="#F4DFBE" d="M148.563,116.036l-16.958,18.179l-22.875-13.242l-5.206,3.301c0,0,5.964,6.268,10.226,10.399
			c8.532,8.272,12.428,12.866,17.855,13.486c4.502,0.517,31.942-23.892,31.942-23.892L148.563,116.036z"/>
		<path opacity="0.5" fill="#EABB91" d="M148.624,115.907l-7.638,8.19c2.735,4.114,5.994,8.649,9.857,11.119
			c7.253-5.917,12.767-11.078,12.767-11.078L148.624,115.907z"/>
		<g>
			<path fill="#36B1C0" d="M141.74,123.872c0,0,17.699-22.109,23.795-16.357c10.435,9.843-2.516,23.807-7.492,29.473
				c-1.582,0.144-4.952-0.172-7.199-1.771c-0.03-0.021,1.828-1.75,1.796-1.772C147.512,129.771,141.74,123.872,141.74,123.872z"/>
			<path fill="#52BDD1" d="M140.317,123.442c0,0,18.842-23.254,25.109-17.691c11.422,10.148-1.816,22.054-7.298,29.534
				C152.821,135.947,140.317,123.442,140.317,123.442z"/>
		</g>
		<path opacity="0.5" fill="#EABB91" d="M91.356,121.484c-1.128-0.329-4.096-2.838-5.846-4.06c-0.909-0.636-2.884-1.866-2.692-3.105
			c0.159-1.024,2.237-1.027,2.96-0.882c0.724,0.145,3.553,1.446,6.626,3.999c1.597,0.49,4.948,1.294,7.354-1.529
			c0.277-0.135-3.072-2.754-3.64-3.72c-0.924-0.723-0.596-1.864-0.409-2.292c0.831-1.9,3.028,1.199,4.505,1.592
			c1.556,0.413,3.812,1.372,5.052,2.638c1.376,2.175,2.176,3.643,2.743,5.227C111.059,127.891,95.403,122.659,91.356,121.484z"/>
		<path fill="#F4DFBE" d="M91.7,121.624c-1.129-0.328-3.971-2.863-5.72-4.086c-0.909-0.634-2.764-1.801-2.749-2.829
			c0.016-1.038,1.539-0.709,2.645-0.745l6.528,3.471c6.005,0.275,4.686,1.294,7.093-1.529c0.277-0.135-2.364-2.567-2.932-3.532
			c-0.924-0.723-0.794-1.641-0.607-2.067c0.832-1.902,3.029,1.199,4.505,1.593c1.556,0.411,3.249,1.23,5.026,2.188
			c1.376,2.176,2.595,4.429,3.161,6.012C111.699,128.641,95.747,122.8,91.7,121.624z"/>
	</g>
	<g>
		<path opacity="0.5" fill="#EABB91" d="M74.711,54.762l-12.974-4.251c0,0-0.628,2.463-1.473,5.936
			c4.072,2.27,8.086,5.935,13.043,6.436C73.115,59.001,74.711,54.762,74.711,54.762z"/>
		<path fill="#F4DFBE" d="M78.032,13.079c-12.279-0.891-23.011,9.132-23.979,22.384c-0.958,13.253,9.652,24.778,21.934,25.671
			c7.673,0.56,12.455-2.937,16.275-8.831c0.67-1.041,3.635-0.723,1.789-3.338c-1.789-2.537,2.039-6.08,2.29-9.59
			C97.303,26.127,90.308,13.971,78.032,13.079z"/>
		<path opacity="0.5" fill="#716658" d="M78.584,9.177c12.241-3.93,22.457,6.599,22.302,15.34
			c5.243,4.414-0.615,12.871-4.792,16.179c-0.149,0.467-0.466,1.29-0.466,1.29c-2.537-1.434-5.017-2.278-7.675-2.777
			c0.483-0.791,0.798-3.121,0.255-4.173c-0.103,2.35-1.907,3.786-2.018,3.752c-1.437-0.41-3.822-0.559-5.241-0.839
			c-0.147-0.028,3.66-3.112,2.278-6.68c-0.698,2.75-3.518,5.941-3.662,5.936c-3.45-0.154-6.223,2.135-7.725,1.212
			c0.978-2.727-1.625-5.931-4.541-3.595c-1.892,1.517-1.603,3.812-1.734,5.301c-0.222,2.52-0.098,7.175,2.945,5.342
			c0,0-1.292,7.377,1.675,12.275c8.375,13.826-9.141,23.438,1.934,34.436c-11.79-4.778-7.411-10.071-7.058-13.612
			c0.845-8.459,0.777-7.95-2.792-11.698c-0.295,1.763-1.781,4.255-3.778,5.776c-2.49,1.899-5.896,3.44-10.191,6.996
			c-8.814,7.3-1.685,18.186-1.502,20.571c-13.168-14.158-1.239-24.633,1.6-26.906c3.624-2.904,3.332-6.638,0.909-14.902
			C45.15,44.22,45.765,28.144,56.91,14.33C61.904,8.142,71.543,5.301,78.584,9.177z"/>
		<path fill="#4F2415" d="M77.722,5.102c11.734-1.818,23.319,9.683,23.165,18.425c5.68,4.782,2.999,15.72-1.018,17.273
			c-4.38-0.047-5.612-0.896-11.181-2.513c-0.126-0.038,0.776-2.399-0.79-4.806c-0.277,2.715-0.342,3.353-1.704,4.675
			c-1.009,0-3.68-0.194-5.1-0.476c-0.147-0.026,3.516-3.835,2.135-7.402c0.568,3.079-2.927,7.454-3.071,7.448
			c-3.45-0.154-7.183,2.065-8.525,0.493c0.977-2.728-1.218-6.453-4.331-4.389c-1.026,0.681-1.603,3.813-1.734,5.302
			c-0.222,2.52-0.098,7.175,2.945,5.343c0,0-1.292,7.376,1.675,12.273c8.375,13.826-8.925,24.52,2.149,35.519
			c-11.79-4.779-6.883-11.123-6.529-14.665c0.845-8.459-0.584-8.623-4.151-12.371c-0.295,1.763-0.533,3.937-2.529,5.458
			c-2.491,1.899-4.198,1.98-8.605,5.396c-4.441,3.442-11.858,8.953-4.466,22.392c0.474,0.863,2.267,4.045-0.02,1.979
			c-14.323-14.764-3.875-25.154-1.038-27.428c3.625-2.904,6.734-7.354,4.312-15.619c-4.159-14.181-6.462-30.571,4.683-44.385
			C58.985,6.836,66.153,4.442,77.722,5.102z"/>
		
			<ellipse transform="matrix(0.852 0.5235 -0.5235 0.852 36.3794 -38.6974)" fill="#43352E" cx="86.646" cy="45.008" rx="1.097" ry="1.61"/>
		<path fill="#43352E" d="M84.661,40.709c-0.115,0.213,1.352-0.12,3.598,0.803c1.07,0.438,1.977,1.17,2.092,0.955
			c0.054-0.1,0.816-0.811,0.556-1.039c-0.296-0.259-1.874-0.868-2.46-1.053C86.263,39.689,84.775,40.496,84.661,40.709z"/>
		<path fill="#E8838B" d="M86.194,57.124c0,0-2.481-0.713-3.25-2.769c-0.77-2.058-1.874,0.68-1.101,2.397
			C82.33,57.847,84.065,60.662,86.194,57.124z"/>
		<path fill="#EABB91" d="M67.972,42.343c1.126-0.495,0.802-1.099,1.742-3.083c0.991-2.094-1.572-3.38-2.376-0.802
			C66.981,39.601,66.846,42.836,67.972,42.343z"/>
	</g>
	<g>
		<path opacity="0.5" fill="#EABB91" d="M149.175,90.381c0,0,0.937,3.637,4.407,4.958s6.126,1.165,9.725,1.157l-0.584-4.674
			L149.175,90.381z"/>
		<path fill="#F4DFBE" d="M168.602,45.812c11.627,6.479,15.388,21.899,8.397,34.448c-6.986,12.551-22.083,17.474-33.707,10.997
			c-7.268-4.045-10.85-10.843-10.811-18.433c0.008-1.337-2.862-2.805,0.36-4.078c3.123-1.231,1.762-6.703,3.619-10.025
			C143.447,46.173,156.978,39.335,168.602,45.812z"/>
		<path fill="#43352E" d="M141.205,65.225c-0.261,0.969-1.01,1.613-1.669,1.434c-0.663-0.175-0.986-1.109-0.725-2.078
			c0.258-0.971,1.007-1.614,1.668-1.435C141.142,63.323,141.466,64.253,141.205,65.225z"/>
		<path fill="#E07612" d="M145.912,63.089c-0.077,0.244-1.111-1.182-3.898-2.341c-1.325-0.551-2.337-0.673-2.678-1.005
			c-0.338-0.333-0.22-1.428,0.205-1.379c0.485,0.053,2.584,1.077,3.266,1.419C145.338,61.061,145.991,62.841,145.912,63.089z"/>
		<g>
			<path opacity="0.5" fill="#EABB91" d="M141.186,54.739c-0.012-0.413-0.357-1.295-1.208-1.188
				c-0.06,0.008,1.201-1.378,1.146-1.408c-3.446-1.872-12.245-2.937-9.491-5.538c2.562-2.417,6.14-2.739,9.76-0.378
				c1.685-5.115,12.318-12.972,24.304-5.56c5.223,0.746,14.46,1.284,17.833,12.944c2.114,7.302,6.889,17.308-5.406,28.588
				c-1.565,1.439-3.77,3.549-6.527,6.309c-2.187,2.181-2.131,2.684-6.509,3.112c-0.102,0.01-0.861,0.391-0.956,0.359
				c-6.088-2.095-5.228-7.081-5.244-8.903c3.344,2.65,6.796-1.129,7.865-3.598c2.095-4.833-0.39-11.464-6.34-6.175
				c-5.537-1.499-8.483-1.982-10.962-7.381C147.446,61.553,149.12,51.873,141.186,54.739z"/>
			<path fill="#F29220" d="M142.133,53.698c-0.051-1.995-4.903-1.684-4.832,5.568c-2.224-0.843-3.985-2.58-3.401-5.847
				c0.307-1.721-0.474-1.886-0.895-0.058c-0.251,1.078,0.031,2.931,1.356,4.757c-7.623-1.356-5.568-9.394-2.039-12.725
				c2.56-2.417,4.511-6.246,10.208-2.886c1.685-5.115,11.868-10.463,23.854-3.051c5.222,0.745,14.46,1.284,17.833,12.944
				c2.114,7.301,8.59,19.32-3.705,30.6c-1.564,1.438-2.849,1.111-5.607,3.871c-2.185,2.181-6.562,6.14-10.876,4.447
				c-4.258-1.672-5.133-6.68-5.149-8.542c3.344,2.649,6.201-1.166,7.326-3.608c2.331-5.065-0.828-10.937-5.513-5.514
				c-9.305-2.616-10.46-7.327-10.868-9.364C149.143,60.917,151.145,51.75,142.133,53.698z"/>
			<path fill="#F29220" d="M199.194,55.938c0.049,8.134-4.257,11.383-9.172,11.886c-4.915,0.502-9.631-5.978-10.328-12.812
				c-0.695-6.836,4.303-10.461,9.216-10.962C193.825,43.549,199.15,48.154,199.194,55.938z"/>
		</g>
		<path fill="#E8838B" d="M140.363,80.808c0,0-2.641,1.231-4.245-0.268c-1.606-1.499-1.375,1.443,0.08,2.638
			C137.123,83.941,140.032,84.923,140.363,80.808z"/>
		<path fill="#EABB91" d="M161.649,76.356c0.408-1.378,2.731-2.012,2.643,0.188c-0.104,2.538-1.304,3.781-1.935,3.955
			c-1.234,0.338-1.234-0.675-1.234-0.675S161.931,78.519,161.649,76.356z"/>
	</g>
	<path opacity="0.3" fill="#716658" d="M47.147,94.9c0,0,5.289,6.839,9.255,7.564c1.322,1.313,1.858,1.691,2.13,1.973
		c-0.62,0.019-1.907,0.361-3.37-0.354C48.666,101.053,47.147,94.9,47.147,94.9z"/>
</g>
</svg>
