<?xml version="1.0" encoding="utf-8"?>
<!-- Generator: Adobe Illustrator 16.0.3, SVG Export Plug-In . SVG Version: 6.00 Build 0)  -->
<!DOCTYPE svg PUBLIC "-//W3C//DTD SVG 1.1//EN" "http://www.w3.org/Graphics/SVG/1.1/DTD/svg11.dtd">
<svg version="1.1" id="Capa_1" xmlns="http://www.w3.org/2000/svg" xmlns:xlink="http://www.w3.org/1999/xlink" x="0px" y="0px"
	 width="250px" height="250px" viewBox="0 0 250 250" enable-background="new 0 0 250 250" xml:space="preserve">
<g>
	<g>
		<path fill="#82939A" d="M120.126,206.968l2.411-6.049l2.293,6.063c21.713,0.214,36.592,3.733,36.592,3.733l-7.918-21.086H91.517
			l-6.846,21.086C97.328,207.896,108.731,206.967,120.126,206.968z"/>
		<path fill="#42414B" d="M134.729,234.528c9.006-16.512,8.657-49.964,8.657-49.964l-10.562,0.959
			c7.351,15.759-1.851,39.811-4.916,46.964l0,0c0,0-5.142,6.769,0,7.293c0,0,17.226,7.388,20.447,0.441
			C151.285,233.903,137.293,234.388,134.729,234.528z"/>
		<path fill="#42414B" d="M113.333,234.528c-9.004-16.512-8.655-49.964-8.655-49.964l10.561,0.959
			c-7.351,15.759,1.852,39.811,4.917,46.964h0c0,0,5.142,6.769,0,7.293c0,0-17.228,7.388-20.448,0.441
			C96.778,233.903,110.77,234.388,113.333,234.528z"/>
		<path fill="#D03F3E" d="M145.046,110.877c-3.078-4.787-6.644-8.921-10.773-12.057c-8.989-6.831-21.129,0.041-21.129,0.041
			s-10.768,3.973-18.141,27.285C113.146,128.011,132.648,124.72,145.046,110.877z"/>
		<path fill="#D85144" d="M150.894,121.943c-1.723-3.935-3.66-7.665-5.848-11.066c-12.397,13.842-31.9,17.133-50.043,15.269
			c-4.008,12.667-7.013,31.039-6.741,57.6c0,0,4.587,4.788,14.167,9.996c9.517,5.178,23.915,5.591,43.477,1.049
			c5.737-1.333,8.372-3.238,15.006-6.231C157.307,159.252,159.268,141.065,150.894,121.943z"/>
		<path fill="#FFFFFF" d="M113.003,104.73c0,0-17.639,52.171-11.875,107.539c0,0-16.527,2.156-23.717-4.316
			c0,0-2.611-69.108,26.917-103.223H113.003z"/>
		<path fill="#FFFFFF" d="M133.091,104.73c0,0,17.638,52.171,11.875,107.539c0,0,16.526,2.156,23.718-4.316
			c0,0,2.609-69.108-26.918-103.223H133.091z"/>
		<path fill="#D2D9D9" d="M113.003,105.849c0,0-10.066,2.876-11.875,14.381c-1.129,7.186,3.2,12.225,3.2,12.225
			s-4.874,5.411-5.954,14.38c-1.185,9.842,2.505,20.89,2.505,20.89L113.003,105.849z"/>
		<path fill="#D2D9D9" d="M133.091,105.849c0,0,10.064,2.876,11.875,14.381c1.128,7.186-3.2,12.225-3.2,12.225
			s4.873,5.411,5.955,14.38c1.185,9.842-2.508,20.89-2.508,20.89L133.091,105.849z"/>
		<g>
			<path fill="#F4D0A2" d="M173.306,71.259c0,0,7.99-29.624-19.8-42.56c-27.789-12.936-81.642-7.027-74.584,42.56
				c0,0-10.062-8.624-14.373,0c-4.312,8.625,10.542,30.184,17.728,14.375c0,0,4.312,23.954,43.118,24.913
				c38.81,0.958,45.036-25.39,45.036-25.39s2.047,9.34,11.02,3.83C189.133,84.271,191.032,57.845,173.306,71.259z"/>
			<path fill="#FFFFFF" d="M104.328,91.257c0,0,28.268,5.27,43.599-1.437c0,0-4.702,14.423-20.853,14.899
				C110.966,105.192,104.328,91.257,104.328,91.257z"/>
			<g>
				<circle fill="#42414B" cx="149.701" cy="74.674" r="4.869"/>
				<circle fill="#42414B" cx="101.128" cy="74.674" r="4.87"/>
			</g>
			<path fill="#F2AB94" d="M156.81,90.789c-2.513,0.244-4.532-4.824,3.359-7.893C168.062,79.826,168.792,89.618,156.81,90.789z"/>
			<path fill="#F2AB94" d="M96.137,90.789c2.512,0.244,4.531-4.824-3.361-7.893C84.883,79.826,84.152,89.618,96.137,90.789z"/>
			<path fill="#5E351D" d="M96.83,39.397c0,0,32.047,20.269,63.443,12.284c0,0,0,16.604,13.033,19.578l6.501-3.501
				c0,0,4.168-15.263-5.095-29.956c0,0,5.111,7.984,8.303,6.069c3.196-1.917-3.83-26.191-36.73-26.83c0,0,3.945-2.237-6.013-5.431
				c-9.957-3.193-30.806-0.661-39.143,9.902c0,0-9.593-8.304-14.158-5.749c-4.567,2.554,7.891,7.042,7.891,7.042
				S84.958,22.469,84,25.025c-0.958,2.555,7.028,3.194,7.028,3.194S66.2,37.71,71.907,67.622l7.015,3.637
				c0,0,1.245,8.604,4.759,8.285c3.514-0.32-0.961-16.189-0.961-16.189S91.773,55.049,96.83,39.397z"/>
			<path fill="#48250C" d="M93.284,68.285c0,0,3.887-8.26,11.384-2.695l1.67-4.473c0,0-9.167-5.749-15.927,4.543L93.284,68.285z"/>
			<path fill="#48250C" d="M154.791,68.285c0,0-3.885-8.26-11.384-2.695l-1.67-4.473c0,0,9.169-5.749,15.928,4.543L154.791,68.285z"
				/>
		</g>
	</g>
	<g>
		<g>
			<path fill="#5E351D" d="M122.559,190.143c0,2.353-1.907,4.26-4.259,4.26H75.08c-2.353,0-4.259-1.907-4.259-4.26v-66.774
				c0-2.352,1.907-4.259,4.259-4.259h43.22c2.352,0,4.259,1.907,4.259,4.259V190.143z"/>
			<path fill="#875E44" d="M120.784,190.143c0,2.353-1.906,4.26-4.259,4.26H73.305c-2.352,0-4.259-1.907-4.259-4.26v-66.774
				c0-2.352,1.907-4.259,4.259-4.259h43.219c2.353,0,4.259,1.907,4.259,4.259V190.143z"/>
		</g>
		<path fill="#ABD2D6" d="M98.31,108.347h-6.563c-0.483,0-0.885,0.332-0.997,0.78c-0.02,0.08-0.033,0.162-0.033,0.25v11.583
			c0,0.569,0.46,1.029,1.03,1.029h5.636h0.927c0.569,0,1.03-0.46,1.03-1.029v-11.583C99.339,108.808,98.878,108.347,98.31,108.347z
			 M95.027,113.532c-0.964,0-1.745-0.782-1.745-1.746c0-0.965,0.781-1.747,1.745-1.747c0.965,0,1.746,0.781,1.746,1.747
			C96.773,112.75,95.992,113.532,95.027,113.532z"/>
		<path fill="#D3DDDF" d="M102.83,116.242c0,0.701-0.569,1.269-1.27,1.269H88.494c-0.701,0-1.268-0.567-1.268-1.269l0,0
			c0-0.699,0.567-1.268,1.268-1.268h13.066C102.261,114.975,102.83,115.543,102.83,116.242L102.83,116.242z"/>
		<g>
			<g>
				
					<rect x="73.855" y="126.164" transform="matrix(0.9999 0.0151 -0.0151 0.9999 2.3823 -1.4262)" fill="#ABD2D6" width="43.01" height="60.83"/>
				<polygon fill="#FFFFFF" points="114.331,184.64 75.758,186.961 72.104,126.242 115.036,123.658 118.456,180.477 				"/>
			</g>
			<polygon fill="#CDE0E1" points="118.456,180.477 114.262,180.094 114.331,184.64 			"/>
		</g>
		<g>
			<path fill="#ABD2D6" d="M87.545,123.408c2.803-7.007,10.356-5.144,16.646-4.149v-1.245c0-0.764-0.619-1.383-1.383-1.383H87.247
				c-0.763,0-1.384,0.619-1.384,1.383v8.818c0,0.646,0.448,1.187,1.049,1.337C86.805,126.616,86.966,125.027,87.545,123.408z"/>
			<path fill="#D3DDDF" d="M87.545,123.408c-0.579,1.619-0.74,3.208-0.633,4.761c0.108,0.027,0.219,0.046,0.334,0.046h15.562
				c0.764,0,1.383-0.622,1.383-1.383v-7.573C97.901,118.265,90.348,116.401,87.545,123.408z"/>
		</g>
	</g>
	<path fill="#F4D0A2" d="M60.267,149.431c-2.374,4.135-1.909,18.83,9.901,20.625c11.81,1.797,2.717-6.779,2.717-6.779
		s8.778,1.262,8.781-4.214c0.004-5.475-6.694-2.844-6.694-2.844s6.047-2.816,4.722-6.161c-1.324-3.347-5.98-0.115-5.98-0.115
		s6.597-6.681,2.098-7.973C71.311,140.675,64.603,141.876,60.267,149.431z"/>
	<g>
		<g>
			<g>
				<path fill="#A7D9CF" d="M169.126,128.49v-9.861c0-0.438,0.354-0.791,0.79-0.791h1.112c0.624,0,1.148-0.683,1.148-1.487
					c0-0.808-0.524-1.489-1.148-1.489H158.63c-0.621,0-1.146,0.682-1.146,1.489c0,0.805,0.525,1.487,1.146,1.487h1.452
					c0.437,0,0.793,0.354,0.793,0.791v9.891C163.623,128.488,166.368,128.462,169.126,128.49z"/>
				<path fill="#F0725C" d="M160.875,128.52v43.98c0,1.77,1.849,3.209,4.125,3.209c2.274,0,4.126-1.439,4.126-3.209v-44.01
					C166.368,128.462,163.623,128.488,160.875,128.52z"/>
				<path fill="#FFFFFF" d="M171.028,113.279H158.63c-1.503,0-2.729,1.378-2.729,3.071c0,1.69,1.227,3.068,2.729,3.068h0.662V172.5
					c0,2.641,2.561,4.792,5.708,4.792c3.148,0,5.708-2.151,5.708-4.792v-53.081h0.32c1.507,0,2.731-1.378,2.731-3.068
					C173.76,114.657,172.535,113.279,171.028,113.279z M171.028,117.838h-1.112c-0.436,0-0.79,0.354-0.79,0.791V172.5
					c0,1.77-1.852,3.209-4.126,3.209c-2.276,0-4.125-1.439-4.125-3.209v-53.871c0-0.438-0.356-0.791-0.793-0.791h-1.452
					c-0.621,0-1.146-0.683-1.146-1.487c0-0.808,0.525-1.489,1.146-1.489h12.398c0.624,0,1.148,0.682,1.148,1.489
					C172.177,117.155,171.652,117.838,171.028,117.838z"/>
			</g>
			<path opacity="0.6" fill="#FFFFFF" d="M167.6,171.253c0,0.718-0.582,1.299-1.301,1.299l0,0c-0.717,0-1.299-0.581-1.299-1.299
				v-50.977c0-0.718,0.582-1.299,1.299-1.299l0,0c0.719,0,1.301,0.581,1.301,1.299V171.253z"/>
		</g>
		<path fill="#F4D0A2" d="M179.255,141.352c2.374,4.135,1.909,18.83-9.901,20.625c-11.809,1.797-2.717-6.779-2.717-6.779
			s-8.777,1.262-8.782-4.214c-0.004-5.475,6.695-2.844,6.695-2.844s-6.048-2.816-4.722-6.163c1.322-3.345,5.979-1.461,5.979-1.461
			s-6.598-5.335-2.099-6.626C168.21,132.594,174.919,133.795,179.255,141.352z"/>
	</g>
</g>
</svg>
